<svg width="160" height="160" viewBox="0 0 160 160" fill="none" xmlns="http://www.w3.org/2000/svg">
<g clip-path="url(#clip0_30_99)">
<path d="M45.4584 146.74C45.4584 149.707 62.8272 152.113 84.2526 152.113C105.678 152.113 123.047 149.707 123.047 146.74C123.047 143.772 105.678 141.367 84.2526 141.367C62.8272 141.367 45.4584 143.772 45.4584 146.74Z" fill="url(#paint0_radial_30_99)"/>
<g clip-path="url(#clip1_30_99)">
<path d="M45.4584 149.201C45.4584 152.169 62.8272 154.574 84.2526 154.574C105.678 154.574 123.047 152.169 123.047 149.201C123.047 146.234 105.678 143.828 84.2526 143.828C62.8272 143.828 45.4584 146.234 45.4584 149.201Z" fill="url(#paint1_radial_30_99)"/>
<path d="M45.7159 145.488C45.7159 148.472 63.1833 150.891 84.7305 150.891C106.278 150.891 123.745 148.472 123.745 145.488C123.745 142.503 106.278 140.084 84.7305 140.084C63.1833 140.084 45.7159 142.503 45.7159 145.488Z" fill="url(#paint2_radial_30_99)"/>
<path fill-rule="evenodd" clip-rule="evenodd" d="M138.198 71.117C130.819 65.5055 121.391 64.8558 115.337 72.6294C109.282 80.4027 113.275 90.5868 120.775 94.6367C131.758 100.567 147.615 103.175 151.416 97.3746C155.216 91.5744 145.696 76.8202 138.198 71.117Z" fill="url(#paint3_linear_30_99)"/>
<path fill-rule="evenodd" clip-rule="evenodd" d="M138.198 71.117C130.819 65.5055 121.391 64.8558 115.337 72.6294C109.282 80.4027 113.275 90.5868 120.775 94.6367C131.758 100.567 147.615 103.175 151.416 97.3746C155.216 91.5744 145.696 76.8202 138.198 71.117Z" fill="url(#paint4_radial_30_99)"/>
<path fill-rule="evenodd" clip-rule="evenodd" d="M43.3756 86.2298L43.3756 47.8545C43.3756 26.879 60.4051 9.84953 81.3806 9.84953C102.356 9.84953 119.386 26.879 119.386 47.8545L119.386 88.0436C119.386 124.42 43.3756 115.053 43.3756 86.2298Z" fill="url(#paint5_radial_30_99)"/>
<path fill-rule="evenodd" clip-rule="evenodd" d="M122.588 46.3324V85.189C122.588 107.932 104.124 126.396 81.3813 126.396C58.6384 126.396 40.1743 107.932 40.1743 85.189V44.3659C40.1743 41.4697 41.4232 39.8314 44.3811 40.7358C48.3162 41.9392 49.9723 43.2256 52.6436 48.2676C55.1139 52.9308 63.9212 69.7845 65.9997 73.1343C70.1465 79.8165 76.7297 87.8779 94.724 87.8779C108.236 87.8779 119.671 76.9929 119.671 65.3474V41.9392C119.671 40.303 122.588 42.474 122.588 46.3324Z" fill="url(#paint6_linear_30_99)"/>
<path fill-rule="evenodd" clip-rule="evenodd" d="M81.3816 124.196C94.7181 124.196 100.139 121.882 110.163 114.667C102.733 121.922 92.5756 126.395 81.3816 126.395C70.4665 126.395 60.537 122.142 53.1611 115.205C60.2307 119.316 67.0122 124.196 81.3816 124.196Z" fill="white" fill-opacity="0.05"/>
<path fill-rule="evenodd" clip-rule="evenodd" d="M87.657 101.982C87.5409 103.182 87.3714 108.196 87.3146 109.149C87.2577 110.102 87.9394 110.84 88.7292 111.397C89.5193 111.955 92.654 113.791 93.7687 114.229C94.8834 114.667 96.0767 114.577 97.0346 114.229C97.9924 113.881 101.728 111.448 102.421 110.795C103.114 110.141 103.772 108.904 103.977 107.71C104.192 106.454 104.431 103.659 104.455 102.898C104.499 101.547 104.381 101.105 103.554 100.273C102.529 99.2426 99.98 97.5082 98.8599 96.8453C97.7774 96.2042 96.0584 96.1145 94.6356 96.8736C93.533 97.4617 90.1396 99.2408 89.1794 99.8547C88.2193 100.468 87.7386 101.138 87.657 101.982Z" fill="url(#paint7_radial_30_99)"/>
<path fill-rule="evenodd" clip-rule="evenodd" d="M89.7107 102.298C89.6416 103.013 89.5406 106 89.5068 106.568C89.4729 107.136 89.879 107.575 90.3495 107.907C90.8201 108.24 92.6875 109.333 93.3516 109.594C94.0156 109.855 94.7265 109.801 95.2971 109.594C95.8677 109.387 98.0932 107.937 98.506 107.548C98.9189 107.159 99.3105 106.422 99.4327 105.711C99.5611 104.962 99.7035 103.297 99.7178 102.844C99.7435 102.039 99.6733 101.776 99.1806 101.28C98.5701 100.667 97.0517 99.6333 96.3845 99.2384C95.7396 98.8565 94.7156 98.8031 93.868 99.2553C93.2112 99.6056 91.1897 100.665 90.6177 101.031C90.0458 101.397 89.7594 101.795 89.7107 102.298Z" fill="white"/>
<path fill-rule="evenodd" clip-rule="evenodd" d="M87.6572 101.982C87.5412 103.182 87.3716 108.196 87.3149 109.149C87.5072 106.994 87.7441 102.957 87.8409 102.035C87.9539 100.957 88.7229 100.419 89.2957 100.053C90.6526 99.1843 93.6304 97.6544 94.6968 97.0856C95.7832 96.5059 97.5819 96.3289 98.7314 97.0504C100.065 97.8867 102.108 99.2118 103.389 100.394C104.23 101.17 104.34 101.583 104.456 102.898C104.499 101.547 104.381 101.105 103.554 100.273C102.529 99.2426 99.9803 97.5082 98.8601 96.8452C97.7776 96.2042 96.0587 96.1145 94.6359 96.8736C93.5332 97.4617 90.1399 99.2408 89.1796 99.8546C88.2196 100.468 87.7389 101.138 87.6572 101.982Z" fill="#0042C3"/>
<path fill-rule="evenodd" clip-rule="evenodd" d="M104.455 102.898C104.454 103.966 104.393 105.273 104.137 107.707C104.042 108.603 103.521 110.261 102.509 111.031C100.9 112.253 98.8205 113.722 97.1506 114.434C95.7648 115.024 94.4049 114.768 93.6989 114.437C91.773 113.534 89.7965 112.291 88.5368 111.517C87.2195 110.706 87.2424 109.955 87.3141 109.149C87.2571 110.102 87.9388 110.84 88.7286 111.397C89.5187 111.955 92.6534 113.791 93.7681 114.229C94.8828 114.667 96.0761 114.577 97.034 114.229C97.9918 113.881 101.728 111.448 102.421 110.795C103.114 110.141 103.771 108.904 103.976 107.71C104.192 106.454 104.431 103.659 104.455 102.898Z" fill="#98B5FF"/>
<path fill-rule="evenodd" clip-rule="evenodd" d="M40.1743 47.0699V44.3646C40.1743 41.4685 41.4233 39.83 44.3813 40.7347C48.3163 41.9379 49.9724 43.2244 52.6437 48.2665C55.1141 52.9296 63.9212 69.7832 65.9998 73.133C70.1464 79.8153 76.7296 87.8767 94.7241 87.8767C108.236 87.8767 119.671 76.9916 119.671 65.3462V41.9379C119.671 40.3019 122.588 42.4728 122.588 46.3312V65.1263C122.588 78.2358 112.563 90.8259 95.1424 90.8259C75.2637 90.8259 67.3315 82.9989 62.5022 73.7629C58.6042 66.3078 50.8136 51.6476 48.8225 47.9907C46.4717 43.6727 43.7947 43.6729 42.0131 43.221C40.2813 42.7819 40.1743 45.4667 40.1743 47.0699Z" fill="url(#paint8_linear_30_99)"/>
<path d="M78.5157 64.2857C85.6935 64.2857 91.5122 57.1414 91.5122 48.3285C91.5122 39.5157 85.6935 32.3714 78.5157 32.3714C71.338 32.3714 65.5192 39.5157 65.5192 48.3285C65.5192 57.1414 71.338 64.2857 78.5157 64.2857Z" fill="url(#paint9_radial_30_99)"/>
<path d="M106.814 64.2857C113.63 64.2857 119.156 57.1414 119.156 48.3285C119.156 39.5157 113.63 32.3714 106.814 32.3714C99.998 32.3714 94.4724 39.5157 94.4724 48.3285C94.4724 57.1414 99.998 64.2857 106.814 64.2857Z" fill="url(#paint10_radial_30_99)"/>
<path d="M78.5163 58.5266C82.3647 58.5266 85.4845 53.9609 85.4845 48.3288C85.4845 42.6967 82.3647 38.131 78.5163 38.131C74.6679 38.131 71.5481 42.6967 71.5481 48.3288C71.5481 53.9609 74.6679 58.5266 78.5163 58.5266Z" fill="white"/>
<path fill-rule="evenodd" clip-rule="evenodd" d="M83.3301 68.1839C85.1178 69.402 86.9759 70.2979 88.8597 70.85C90.2475 71.2569 91.6416 71.4669 92.9925 71.4963C93.5653 71.5087 94.1317 71.4814 94.684 71.4122C95.5491 71.304 96.3826 71.1191 97.1713 70.8494C99.2957 70.1233 101.095 68.9505 102.434 67.4049C102.724 67.1322 102.738 66.6758 102.465 66.3862C102.192 66.0968 101.736 66.0831 101.446 66.3558C100.081 67.4031 98.3879 67.9927 96.5246 68.3058C95.955 68.4016 95.3725 68.4549 94.7743 68.5003C94.1983 68.5442 93.6108 68.5605 93.0118 68.5653C91.5761 68.577 90.083 68.4617 88.557 68.128C87.1088 67.8112 85.6369 67.3804 84.1825 66.6963C83.772 66.461 83.2478 66.6034 83.0125 67.0139C82.7773 67.4245 82.9195 67.9486 83.3301 68.1839Z" fill="white"/>
<path d="M107.479 58.5266C111.065 58.5266 113.973 53.9609 113.973 48.3288C113.973 42.6967 111.065 38.131 107.479 38.131C103.892 38.131 100.984 42.6967 100.984 48.3288C100.984 53.9609 103.892 58.5266 107.479 58.5266Z" fill="white"/>
<path d="M45.6551 107.292C52.5514 107.292 58.1419 97.0993 58.1419 84.5259C58.1419 71.9524 52.5514 61.7596 45.6551 61.7596C38.7588 61.7596 33.1683 71.9524 33.1683 84.5259C33.1683 97.0993 38.7588 107.292 45.6551 107.292Z" fill="url(#paint11_radial_30_99)"/>
<path fill-rule="evenodd" clip-rule="evenodd" d="M23.1943 71.117C30.5725 65.5055 40.0006 64.8558 46.055 72.6294C52.1094 80.4027 48.1171 90.5868 40.6171 94.6367C29.6342 100.567 13.7764 103.175 9.97618 97.3746C6.17571 91.5744 15.6955 76.8202 23.1943 71.117Z" fill="url(#paint12_linear_30_99)"/>
<path fill-rule="evenodd" clip-rule="evenodd" d="M23.1943 71.117C30.5725 65.5055 40.0006 64.8558 46.055 72.6294C52.1094 80.4027 48.1171 90.5868 40.6171 94.6367C29.6342 100.567 13.7764 103.175 9.97618 97.3746C6.17571 91.5744 15.6955 76.8202 23.1943 71.117Z" fill="url(#paint13_radial_30_99)"/>
</g>
</g>
<defs>
<radialGradient id="paint0_radial_30_99" cx="0" cy="0" r="1" gradientTransform="matrix(-40.0033 -0.156781 0.916051 -5.54465 85.462 146.896)" gradientUnits="userSpaceOnUse">
<stop stop-color="#334C9D"/>
<stop offset="0.28" stop-color="#334C9D" stop-opacity="0.76"/>
<stop offset="1" stop-color="#334C9D" stop-opacity="0"/>
</radialGradient>
<radialGradient id="paint1_radial_30_99" cx="0" cy="0" r="1" gradientTransform="matrix(-40.0033 -0.156781 0.916051 -5.54465 85.462 149.358)" gradientUnits="userSpaceOnUse">
<stop stop-color="#334C9D"/>
<stop offset="0.28" stop-color="#334C9D" stop-opacity="0.76"/>
<stop offset="1" stop-color="#334C9D" stop-opacity="0"/>
</radialGradient>
<radialGradient id="paint2_radial_30_99" cx="0" cy="0" r="1" gradientTransform="matrix(-40.2306 -0.157672 0.921256 -5.57616 85.9467 145.645)" gradientUnits="userSpaceOnUse">
<stop stop-color="#334C9D"/>
<stop offset="0.28" stop-color="#334C9D" stop-opacity="0.76"/>
<stop offset="1" stop-color="#334C9D" stop-opacity="0"/>
</radialGradient>
<linearGradient id="paint3_linear_30_99" x1="136.326" y1="74.1731" x2="122.919" y2="95.5887" gradientUnits="userSpaceOnUse">
<stop stop-color="#ACC5FD"/>
<stop offset="1" stop-color="#3966B8"/>
</linearGradient>
<radialGradient id="paint4_radial_30_99" cx="0" cy="0" r="1" gradientUnits="userSpaceOnUse" gradientTransform="translate(130.062 70.2143) rotate(97.4498) scale(22.0709 22.0709)">
<stop stop-color="#E2E9FA"/>
<stop offset="0.33" stop-color="#D6E3FF" stop-opacity="0.67"/>
<stop offset="1" stop-color="#8BA9E8" stop-opacity="0"/>
</radialGradient>
<radialGradient id="paint5_radial_30_99" cx="0" cy="0" r="1" gradientUnits="userSpaceOnUse" gradientTransform="translate(70.9165 32.1181) rotate(54.7804) scale(61.3757)">
<stop stop-color="#0060D3"/>
<stop offset="0.27" stop-color="#004BB4"/>
<stop offset="1" stop-color="#002176"/>
</radialGradient>
<linearGradient id="paint6_linear_30_99" x1="82.8442" y1="127.656" x2="80.3567" y2="55.3886" gradientUnits="userSpaceOnUse">
<stop stop-color="#2667C5"/>
<stop offset="1" stop-color="#C2D2F6"/>
</linearGradient>
<radialGradient id="paint7_radial_30_99" cx="0" cy="0" r="1" gradientUnits="userSpaceOnUse" gradientTransform="translate(94.672 104.531) rotate(42.285) scale(8.14989)">
<stop stop-color="#D7E2FF"/>
<stop offset="1" stop-color="#0040BF"/>
</radialGradient>
<linearGradient id="paint8_linear_30_99" x1="40.1743" y1="72.9266" x2="121.353" y2="74.9016" gradientUnits="userSpaceOnUse">
<stop stop-color="#E6EEFF"/>
<stop offset="0.2" stop-color="#C2D2F6"/>
<stop offset="0.5" stop-color="#FCFCFE"/>
<stop offset="0.8" stop-color="white"/>
<stop offset="1" stop-color="#E1E9FE"/>
</linearGradient>
<radialGradient id="paint9_radial_30_99" cx="0" cy="0" r="1" gradientTransform="matrix(-0.174099 15.8414 -12.1461 -0.0939556 78.8769 48.0811)" gradientUnits="userSpaceOnUse">
<stop stop-color="white"/>
<stop offset="0.54" stop-color="white" stop-opacity="0.29"/>
<stop offset="1" stop-color="white" stop-opacity="0"/>
</radialGradient>
<radialGradient id="paint10_radial_30_99" cx="0" cy="0" r="1" gradientTransform="matrix(-0.165329 15.8414 -11.5343 -0.0939556 107.157 48.0811)" gradientUnits="userSpaceOnUse">
<stop stop-color="white"/>
<stop offset="0.54" stop-color="white" stop-opacity="0.29"/>
<stop offset="1" stop-color="white" stop-opacity="0"/>
</radialGradient>
<radialGradient id="paint11_radial_30_99" cx="0" cy="0" r="1" gradientTransform="matrix(-0.79702 22.1359 -12.1398 -0.52278 46.0194 83.8162)" gradientUnits="userSpaceOnUse">
<stop stop-color="#00449B"/>
<stop offset="1" stop-color="#77A0E2" stop-opacity="0"/>
</radialGradient>
<linearGradient id="paint12_linear_30_99" x1="25.0662" y1="74.1731" x2="38.4732" y2="95.5887" gradientUnits="userSpaceOnUse">
<stop stop-color="#ACC5FD"/>
<stop offset="1" stop-color="#3966B8"/>
</linearGradient>
<radialGradient id="paint13_radial_30_99" cx="0" cy="0" r="1" gradientUnits="userSpaceOnUse" gradientTransform="translate(29.9068 71.432) rotate(82.5502) scale(22.071 22.0709)">
<stop stop-color="#E2E9FA"/>
<stop offset="0.33" stop-color="#D6E3FF" stop-opacity="0.67"/>
<stop offset="1" stop-color="#8BA9E8" stop-opacity="0"/>
</radialGradient>
<clipPath id="clip0_30_99">
<rect width="160" height="160" fill="white"/>
</clipPath>
<clipPath id="clip1_30_99">
<rect width="160" height="160" fill="white" transform="translate(0 2.46154)"/>
</clipPath>
</defs>
</svg>
