<svg width="140" height="49" viewBox="0 0 140 49" fill="none" xmlns="http://www.w3.org/2000/svg">
<path d="M19.4502 4.93555C21.1422 2.17984 24.1475 0.5 27.3854 0.5H113.693C118.833 0.5 123 4.65942 123 9.79032V39.2097C123 44.3406 118.833 48.5 113.693 48.5H9.3217C2.04812 48.5 -2.41442 40.5452 1.38649 34.3549L19.4502 4.93555Z" fill="#BE4BB4"/>
<path d="M41.4811 27.6819C41.4811 29.0445 41.3105 30.2652 40.9692 31.3439C40.6393 32.4226 40.1445 33.3366 39.4847 34.0861C38.8363 34.8241 38.0344 35.3919 37.0789 35.7893C36.1233 36.1867 35.0256 36.3854 33.7857 36.3854C32.6596 36.3854 31.5107 36.2265 30.339 35.9085L30.5096 33.9668C30.5324 33.7738 30.6006 33.6205 30.7144 33.507C30.8395 33.3821 31.0272 33.3196 31.2775 33.3196C31.4822 33.3196 31.7495 33.3707 32.0794 33.4729C32.4207 33.5751 32.8757 33.6262 33.4445 33.6262C34.1952 33.6262 34.8664 33.5126 35.4579 33.2855C36.0494 33.0584 36.5442 32.7065 36.9424 32.2295C37.3405 31.7526 37.6419 31.1452 37.8467 30.4071C38.0628 29.6577 38.1709 28.772 38.1709 27.7501V11.7057H41.4811V27.6819Z" fill="white"/>
<path d="M59.9893 15.5209C59.8869 15.6912 59.7732 15.8218 59.648 15.9126C59.5343 15.9921 59.3921 16.0319 59.2215 16.0319C59.0281 16.0319 58.8006 15.9354 58.539 15.7423C58.2773 15.5493 57.9474 15.3392 57.5493 15.1121C57.1626 14.8737 56.6905 14.6579 56.1331 14.4649C55.5871 14.2719 54.9216 14.1754 54.1367 14.1754C53.3973 14.1754 52.7433 14.2775 52.1745 14.4819C51.6171 14.675 51.145 14.9418 50.7583 15.2824C50.3829 15.6231 50.0985 16.0262 49.9051 16.4917C49.7117 16.9459 49.615 17.4399 49.615 17.9735C49.615 18.6548 49.78 19.2226 50.1099 19.6768C50.4511 20.1196 50.8948 20.5 51.4408 20.8179C51.9982 21.1359 52.6238 21.4141 53.3177 21.6525C54.023 21.8796 54.7396 22.1181 55.4676 22.3679C56.207 22.6177 56.9237 22.9015 57.6176 23.2195C58.3228 23.5261 58.9485 23.9178 59.4945 24.3947C60.0519 24.8716 60.4955 25.4564 60.8254 26.149C61.1666 26.8417 61.3373 27.6933 61.3373 28.7039C61.3373 29.7712 61.1553 30.7761 60.7913 31.7186C60.4273 32.6497 59.8926 33.4615 59.1874 34.1542C58.4935 34.8468 57.6346 35.3919 56.6108 35.7893C55.5984 36.1867 54.4439 36.3854 53.1471 36.3854C51.5545 36.3854 50.1099 36.1015 48.8131 35.5338C47.5163 34.9547 46.4072 34.1769 45.4858 33.2004L46.4413 31.6334C46.5323 31.5085 46.6404 31.4063 46.7655 31.3268C46.902 31.236 47.0499 31.1906 47.2092 31.1906C47.3571 31.1906 47.522 31.253 47.704 31.3779C47.8974 31.4915 48.1135 31.6391 48.3524 31.8208C48.5913 32.0025 48.8643 32.2012 49.1714 32.4169C49.4785 32.6326 49.8255 32.8314 50.2122 33.013C50.6104 33.1947 51.0597 33.348 51.5602 33.4729C52.0607 33.5865 52.6238 33.6432 53.2494 33.6432C54.0343 33.6432 54.7339 33.5354 55.3482 33.3196C55.9625 33.1039 56.48 32.803 56.9009 32.4169C57.3332 32.0195 57.6631 31.5483 57.8906 31.0032C58.1181 30.4582 58.2318 29.8507 58.2318 29.1808C58.2318 28.4427 58.0612 27.8409 57.7199 27.3754C57.3901 26.8985 56.9521 26.501 56.4061 26.1831C55.8601 25.8652 55.2344 25.5983 54.5292 25.3826C53.8239 25.1555 53.1073 24.9284 52.3792 24.7013C51.6512 24.4628 50.9346 24.1903 50.2293 23.8837C49.524 23.5772 48.8984 23.1797 48.3524 22.6915C47.8064 22.2032 47.3627 21.5957 47.0215 20.869C46.6916 20.131 46.5267 19.2226 46.5267 18.1439C46.5267 17.2809 46.6916 16.4463 47.0215 15.6401C47.3627 14.8339 47.8519 14.1186 48.4889 13.4941C49.1373 12.8695 49.9279 12.3699 50.8606 11.9952C51.8048 11.6205 52.8854 11.4332 54.1026 11.4332C55.4676 11.4332 56.7075 11.6489 57.8223 12.0804C58.9485 12.5119 59.9381 13.1364 60.7913 13.9539L59.9893 15.5209Z" fill="white"/>
<path d="M88.6028 23.9178C88.6028 25.7459 88.3127 27.4264 87.7326 28.9594C87.1524 30.4809 86.3334 31.7924 85.2755 32.8938C84.2176 33.9952 82.9436 34.8525 81.4534 35.4657C79.9746 36.0675 78.3366 36.3684 76.5393 36.3684C74.742 36.3684 73.1039 36.0675 71.6252 35.4657C70.1464 34.8525 68.878 33.9952 67.8201 32.8938C66.7622 31.7924 65.9432 30.4809 65.3631 28.9594C64.7829 27.4264 64.4929 25.7459 64.4929 23.9178C64.4929 22.0897 64.7829 20.4148 65.3631 18.8933C65.9432 17.3604 66.7622 16.0432 67.8201 14.9418C68.878 13.829 70.1464 12.9661 71.6252 12.3529C73.1039 11.7397 74.742 11.4332 76.5393 11.4332C78.3366 11.4332 79.9746 11.7397 81.4534 12.3529C82.9436 12.9661 84.2176 13.829 85.2755 14.9418C86.3334 16.0432 87.1524 17.3604 87.7326 18.8933C88.3127 20.4148 88.6028 22.0897 88.6028 23.9178ZM85.2072 23.9178C85.2072 22.419 85.0025 21.0734 84.593 19.8812C84.1835 18.6889 83.6033 17.684 82.8526 16.8665C82.1018 16.0375 81.1918 15.4017 80.1225 14.9588C79.0532 14.516 77.8588 14.2946 76.5393 14.2946C75.2311 14.2946 74.0424 14.516 72.9731 14.9588C71.9038 15.4017 70.9881 16.0375 70.226 16.8665C69.4752 17.684 68.8951 18.6889 68.4856 19.8812C68.0761 21.0734 67.8713 22.419 67.8713 23.9178C67.8713 25.4166 68.0761 26.7622 68.4856 27.9544C68.8951 29.1354 69.4752 30.1403 70.226 30.9692C70.9881 31.7867 71.9038 32.4169 72.9731 32.8597C74.0424 33.2912 75.2311 33.507 76.5393 33.507C77.8588 33.507 79.0532 33.2912 80.1225 32.8597C81.1918 32.4169 82.1018 31.7867 82.8526 30.9692C83.6033 30.1403 84.1835 29.1354 84.593 27.9544C85.0025 26.7622 85.2072 25.4166 85.2072 23.9178Z" fill="white"/>
<path d="M95.0451 11.7057C95.193 11.7057 95.3181 11.717 95.4205 11.7397C95.5229 11.7511 95.6138 11.7795 95.6935 11.8249C95.7731 11.859 95.8527 11.9157 95.9324 11.9952C96.012 12.0634 96.0973 12.1542 96.1883 12.2677L110.333 30.6455C110.311 30.3503 110.288 30.0665 110.265 29.7939C110.254 29.5101 110.248 29.2432 110.248 28.9934V11.7057H113.149V36.1129H111.494C111.232 36.1129 111.01 36.0675 110.828 35.9766C110.658 35.8858 110.487 35.7325 110.316 35.5168L96.1712 17.139C96.194 17.4228 96.2111 17.701 96.2224 17.9735C96.2338 18.2461 96.2395 18.4959 96.2395 18.723V36.1129H93.3388V11.7057H95.0451Z" fill="white"/>
</svg>
