<svg width="174" height="20" viewBox="0 0 174 20" fill="none" xmlns="http://www.w3.org/2000/svg">
<path d="M71.7494 14.384H68.3074C68.1923 14.384 68.1086 14.2723 68.14 14.1606C68.7154 12.202 69.3152 9.985 69.7302 7.52718C70.1557 4.98553 70.3789 2.64289 70.473 0.55161C70.4765 0.45735 70.5532 0.38403 70.6474 0.38403H80.8765C80.9729 0.38403 81.051 0.46219 81.051 0.5586V14.2095C81.051 14.3059 80.9729 14.384 80.8765 14.384H77.5249C77.4284 14.384 77.3503 14.3059 77.3503 14.2095V3.66583H73.9858C73.8621 5.22183 73.6536 6.89377 73.3117 8.6583C72.9142 10.7252 72.4434 12.6 71.9133 14.2653C71.8924 14.3352 71.8226 14.384 71.7494 14.384Z" fill="#EE2F53"/>
<path d="M0 0.5586C0 0.46219 0.0781548 0.38403 0.174564 0.38403H10.0567C10.1801 0.38403 10.2636 0.51116 10.2157 0.62608L8.9919 3.55922C8.95958 3.63669 8.88566 3.67194 8.81548 3.66496C8.80973 3.66554 8.8039 3.66583 8.798 3.66583H3.70075V14.2095C3.70075 14.3059 3.62259 14.384 3.52618 14.384H0.174564C0.0781548 14.384 0 14.3059 0 14.2095V0.5586Z" fill="#0066B3"/>
<path d="M99.3222 0.5586C99.3222 0.46219 99.4004 0.38403 99.4968 0.38403H109.379C109.502 0.38403 109.586 0.51116 109.538 0.62608L108.314 3.55922C108.282 3.63669 108.208 3.67194 108.138 3.66496C108.132 3.66554 108.126 3.66583 108.12 3.66583H103.023V14.2095C103.023 14.3059 102.945 14.384 102.848 14.384H99.4968C99.4004 14.384 99.3222 14.3059 99.3222 14.2095V0.5586Z" fill="#EE2F53"/>
<path d="M39.9967 0.38403C39.8756 0.38403 39.7914 0.5032 39.833 0.61571L44.9253 14.3863C44.2067 15.8971 43.4084 17.4873 42.4953 19.2599C42.4355 19.3759 42.5188 19.5162 42.6496 19.5162H46.2722C46.338 19.5162 46.3987 19.4785 46.4284 19.4199C49.109 13.9651 51.0816 9.1297 53.7785 0.61471C53.8153 0.50214 53.732 0.38403 53.6134 0.38403H50.2486C50.1705 0.38403 50.1015 0.4372 50.0802 0.51213C49.0418 4.15238 48.0845 7.0017 46.9748 9.7477L43.5539 0.49722C43.5288 0.42924 43.4634 0.38403 43.3903 0.38403H39.9967Z" fill="#EE2F53"/>
<path d="M83.3189 0.38403C83.1978 0.38403 83.1136 0.5032 83.1552 0.61571L88.2475 14.3863C87.529 15.8971 86.7306 17.4873 85.8175 19.2599C85.7577 19.3759 85.841 19.5162 85.9718 19.5162H89.5944C89.6602 19.5162 89.7209 19.4785 89.7506 19.4199C92.4312 13.9651 94.4038 9.1297 97.1008 0.61471C97.1375 0.50214 97.0542 0.38403 96.9356 0.38403H93.5708C93.4927 0.38403 93.4237 0.4372 93.4024 0.51213C92.364 4.15238 91.4067 7.0017 90.297 9.7477L86.8761 0.49722C86.851 0.42924 86.7856 0.38403 86.7125 0.38403H83.3189Z" fill="#EE2F53"/>
<path d="M65.5505 11.0804C65.5332 11.0355 65.4986 10.9976 65.4535 10.9769C65.4085 10.9562 65.3565 10.9562 65.3115 10.97C64.5078 11.2667 63.0008 11.5081 61.9511 11.5081C59.6542 11.5081 58.5594 10.8906 58.5594 7.38232C58.5594 4.57773 58.8955 3.2565 61.9511 3.2565C62.8172 3.2565 63.6209 3.38069 64.6429 3.67736C64.726 3.70151 64.8161 3.66356 64.8542 3.58767C65.2353 2.87359 65.696 2.00082 66.2157 0.93141C66.24 0.88312 66.24 0.82792 66.2192 0.77963C66.1984 0.73133 66.1568 0.69339 66.1048 0.67614C64.7607 0.24838 63.1567 0 61.712 0C56.9 0 54.7556 2.25954 54.7556 7.33058C54.7556 12.4741 56.9 14.7681 61.712 14.7681C62.9176 14.7681 65.2942 14.5163 66.4409 14.0609C66.531 14.023 66.5795 13.9195 66.5448 13.8298L65.5505 11.0804Z" fill="#EE2F53"/>
<path d="M37.395 11.0804C37.3776 11.0355 37.343 10.9976 37.298 10.9769C37.2529 10.9562 37.201 10.9562 37.1559 10.97C36.3522 11.2667 34.8452 11.5081 33.7955 11.5081C31.4986 11.5081 30.4039 10.8906 30.4039 7.38232C30.4039 4.57773 30.7399 3.2565 33.7955 3.2565C34.6616 3.2565 35.4653 3.38069 36.4873 3.67736C36.5704 3.70151 36.6605 3.66356 36.6986 3.58767C37.0797 2.87359 37.5405 2.00082 38.0601 0.93141C38.0844 0.88312 38.0844 0.82792 38.0636 0.77963C38.0428 0.73133 38.0012 0.69339 37.9493 0.67614C36.6051 0.24838 35.0011 0 33.5564 0C28.7444 0 26.6 2.25954 26.6 7.33058C26.6 12.4741 28.7444 14.7681 33.5564 14.7681C34.762 14.7681 37.1386 14.5163 38.2853 14.0609C38.3754 14.023 38.4239 13.9195 38.3892 13.8298L37.395 11.0804Z" fill="#0066B3"/>
<path d="M17.5806 0C12.8762 0 11.0444 2.0549 11.0444 7.32997C11.0444 12.6853 12.8762 14.7681 17.5806 14.7681C22.3227 14.7681 24.1716 12.6853 24.1716 7.32997C24.1716 2.0549 22.3227 0 17.5806 0ZM17.5806 11.6945C15.4373 11.6945 14.7696 11.1014 14.7696 7.3823C14.7696 3.42251 15.4989 3.07014 17.5806 3.07014C19.7034 3.07014 20.4464 3.42251 20.4464 7.3823C20.4464 11.1014 19.7651 11.6945 17.5806 11.6945Z" fill="#0066B3"/>
<path d="M123.41 0.38403H120.061C119.963 0.38403 119.886 0.46067 119.886 0.55822V11.1068C119.16 11.3088 118.435 11.4063 117.618 11.4063C115.587 11.4063 114.998 10.835 114.921 8.4522V0.55822C114.921 0.46067 114.844 0.38403 114.746 0.38403H111.397C111.299 0.38403 111.222 0.46067 111.222 0.55822V0.57912C111.222 0.57912 111.222 8.5184 111.226 8.5288C111.306 13.0123 112.932 14.7681 116.948 14.7681C119.293 14.7681 121.91 14.1724 123.463 13.5802C123.536 13.5558 123.581 13.4861 123.581 13.4095V0.55822C123.585 0.46067 123.508 0.38403 123.41 0.38403Z" fill="#EE2F53"/>
<path d="M138 5.57143L137.429 5L134 8.42857L130.571 5L130 5.57143L133.429 9L130 12.4286L130.571 13L134 9.57143L137.429 13L138 12.4286L134.571 9L138 5.57143Z" fill="#66727F"/>
<path d="M172.768 9.78122C173.178 9.66834 173.46 9.29302 173.457 8.86655L173.449 7.74795C173.446 7.32255 173.159 6.95218 172.749 6.84449L167.517 5.469C167.108 5.36171 166.679 5.54173 166.468 5.90874L165.676 7.28622L166.115 7.40417L168.794 8.10864C169.026 8.16957 169.028 8.49946 168.797 8.56317L164.215 9.82647L162.635 12.5753L172.768 9.78122Z" fill="#0066B3"/>
<path d="M155.392 17H157.742C158.077 17 158.387 16.8204 158.554 16.5289L166.657 2.4113C167.017 1.78385 166.566 1 165.845 1H165.116C164.781 1 164.472 1.17959 164.304 1.47106L155.392 17Z" fill="#0066B3"/>
<path d="M145.667 1H144.938C144.217 1 143.767 1.78384 144.127 2.41129L152.229 16.5289C152.397 16.8204 152.706 17 153.041 17H155.392L146.479 1.47106C146.312 1.17959 146.002 1 145.667 1Z" fill="#0066B3"/>
<path d="M151.992 7.04574V6.77462C151.992 6.34876 152.277 5.97596 152.687 5.8656L158.766 4.22705C159.361 4.06665 159.945 4.5171 159.945 5.13608V5.40719C159.945 5.83306 159.661 6.20586 159.251 6.31622L153.172 7.95476C152.577 8.11517 151.992 7.66472 151.992 7.04574Z" fill="#EE2F53"/>
</svg>
