<svg width="140" height="49" viewBox="0 0 140 49" fill="none" xmlns="http://www.w3.org/2000/svg">
<path d="M91.6868 23.9178C91.6868 22.419 91.4817 21.0791 91.0715 19.8982C90.6614 18.7173 90.0803 17.7181 89.3283 16.9005C88.5764 16.083 87.6649 15.4585 86.5939 15.027C85.5229 14.5955 84.3266 14.3797 83.0049 14.3797H77.1771V33.4388H83.0049C84.3266 33.4388 85.5229 33.2231 86.5939 32.7916C87.6649 32.3601 88.5764 31.7413 89.3283 30.9351C90.0803 30.1175 90.6614 29.1183 91.0715 27.9374C91.4817 26.7565 91.6868 25.4166 91.6868 23.9178Z" fill="#FA9144"/>
<path fill-rule="evenodd" clip-rule="evenodd" d="M103 9.79032V39.2097C103 44.3406 98.8264 48.5 93.678 48.5H9.33668C2.05141 48.5 -2.4183 40.5452 1.38872 34.3549L19.4814 4.93555C21.1762 2.17984 24.1863 0.5 27.4294 0.5H93.678C98.8264 0.5 103 4.65942 103 9.79032ZM30.6612 11.7057L38.7449 23.5772L30.3194 36.1129H33.3956C33.6235 36.1129 33.8001 36.0504 33.9254 35.9255C34.0622 35.7893 34.1875 35.6417 34.3014 35.4827L40.6932 25.9276C40.8186 25.7119 40.9211 25.4848 41.0009 25.2463L47.5635 35.4827C47.6547 35.6417 47.7686 35.7893 47.9053 35.9255C48.0535 36.0504 48.2529 36.1129 48.5035 36.1129H51.7849L43.3935 23.4239L51.5114 11.7057H48.3497C48.1788 11.7057 48.0307 11.7568 47.9053 11.859C47.78 11.9498 47.6718 12.0747 47.5806 12.2337L41.5477 21.1586C41.3882 21.4425 41.2686 21.7036 41.1888 21.9421L34.7971 12.1655C34.7059 12.0179 34.6034 11.9044 34.4894 11.8249C34.3755 11.7454 34.1989 11.7057 33.9596 11.7057H30.6612ZM67.4879 15.9126C67.6133 15.8218 67.7272 15.6912 67.8298 15.5209L68.633 13.9539C67.7785 13.1364 66.7872 12.5119 65.6593 12.0804C64.5427 11.6489 63.3008 11.4332 61.9336 11.4332C60.7145 11.4332 59.6321 11.6205 58.6864 11.9952C57.7521 12.3699 56.9603 12.8695 56.3109 13.4941C55.6728 14.1186 55.1829 14.8339 54.8411 15.6401C54.5107 16.4463 54.3455 17.2809 54.3455 18.1439C54.3455 19.2226 54.5107 20.131 54.8411 20.869C55.1829 21.5957 55.6272 22.2032 56.1741 22.6915C56.721 23.1797 57.3477 23.5772 58.0541 23.8837C58.7605 24.1903 59.4783 24.4628 60.2075 24.7013C60.9366 24.9284 61.6544 25.1555 62.3608 25.3826C63.0672 25.5983 63.6939 25.8652 64.2408 26.1831C64.7877 26.501 65.2263 26.8985 65.5567 27.3754C65.8985 27.8409 66.0694 28.4427 66.0694 29.1808C66.0694 29.8507 65.9555 30.4582 65.7276 31.0032C65.4998 31.5483 65.1693 32.0195 64.7364 32.4169C64.3148 32.803 63.7964 33.1039 63.1812 33.3196C62.5659 33.5354 61.8652 33.6432 61.0791 33.6432C60.4524 33.6432 59.8884 33.5865 59.3871 33.4729C58.8858 33.348 58.4358 33.1947 58.037 33.013C57.6496 32.8314 57.3021 32.6326 56.9945 32.4169C56.6868 32.2012 56.4134 32.0025 56.1741 31.8208C55.9349 31.6391 55.7184 31.4915 55.5247 31.3779C55.3424 31.253 55.1772 31.1906 55.0291 31.1906C54.8696 31.1906 54.7215 31.236 54.5847 31.3268C54.4594 31.4063 54.3512 31.5085 54.26 31.6334L53.303 33.2004C54.2258 34.1769 55.3367 34.9547 56.6356 35.5338C57.9344 36.1015 59.3814 36.3854 60.9765 36.3854C62.2754 36.3854 63.4318 36.1867 64.4459 35.7893C65.4713 35.3919 66.3315 34.8468 67.0265 34.1542C67.7329 33.4615 68.2684 32.6497 68.633 31.7186C68.9976 30.7761 69.1799 29.7712 69.1799 28.7039C69.1799 27.6933 69.009 26.8417 68.6672 26.149C68.3368 25.4564 67.8924 24.8716 67.3341 24.3947C66.7872 23.9178 66.1606 23.5261 65.4542 23.2195C64.7592 22.9015 64.0414 22.6177 63.3008 22.3679C62.5716 22.1181 61.8538 21.8796 61.1474 21.6525C60.4524 21.4141 59.8258 21.1359 59.2675 20.8179C58.7206 20.5 58.2762 20.1196 57.9344 19.6768C57.604 19.2226 57.4388 18.6548 57.4388 17.9735C57.4388 17.4399 57.5357 16.9459 57.7294 16.4917C57.923 16.0262 58.2079 15.6231 58.5839 15.2824C58.9713 14.9418 59.4441 14.675 60.0024 14.4819C60.5721 14.2775 61.2272 14.1754 61.9678 14.1754C62.7539 14.1754 63.4204 14.2719 63.9673 14.4649C64.5256 14.6579 64.9985 14.8737 65.3858 15.1121C65.7846 15.3392 66.115 15.5493 66.3771 15.7423C66.6391 15.9354 66.867 16.0319 67.0607 16.0319C67.2316 16.0319 67.374 15.9921 67.4879 15.9126ZM94.2162 28.9083C94.7972 27.4094 95.0878 25.7459 95.0878 23.9178C95.0878 22.0897 94.7972 20.4262 94.2162 18.9274C93.6351 17.4285 92.8148 16.1454 91.7552 15.0781C90.6956 13.9994 89.4195 13.1705 87.9269 12.5914C86.4458 12.0009 84.8051 11.7057 83.0049 11.7057H73.8616V36.1129H83.0049C84.8051 36.1129 86.4458 35.8234 87.9269 35.2443C89.4195 34.6538 90.6956 33.8249 91.7552 32.7575C92.8148 31.6902 93.6351 30.4071 94.2162 28.9083Z" fill="#FA9144"/>
<path d="M38.7449 23.5772L30.6612 11.7057H33.9596C34.1989 11.7057 34.3755 11.7454 34.4894 11.8249C34.6034 11.9044 34.7059 12.0179 34.7971 12.1655L41.1888 21.9421C41.2686 21.7036 41.3882 21.4425 41.5477 21.1586L47.5806 12.2337C47.6718 12.0747 47.78 11.9498 47.9053 11.859C48.0307 11.7568 48.1788 11.7057 48.3497 11.7057H51.5114L43.3935 23.4239L51.7849 36.1129H48.5035C48.2529 36.1129 48.0535 36.0504 47.9053 35.9255C47.7686 35.7893 47.6547 35.6417 47.5635 35.4827L41.0009 25.2463C40.9211 25.4848 40.8186 25.7119 40.6932 25.9276L34.3014 35.4827C34.1875 35.6417 34.0622 35.7893 33.9254 35.9255C33.8001 36.0504 33.6235 36.1129 33.3956 36.1129H30.3194L38.7449 23.5772Z" fill="white"/>
<path d="M67.8298 15.5209C67.7272 15.6912 67.6133 15.8218 67.4879 15.9126C67.374 15.9921 67.2316 16.0319 67.0607 16.0319C66.867 16.0319 66.6391 15.9354 66.3771 15.7423C66.115 15.5493 65.7846 15.3392 65.3858 15.1121C64.9985 14.8737 64.5256 14.6579 63.9673 14.4649C63.4204 14.2719 62.7539 14.1754 61.9678 14.1754C61.2272 14.1754 60.5721 14.2775 60.0024 14.4819C59.4441 14.675 58.9713 14.9418 58.5839 15.2824C58.2079 15.6231 57.923 16.0262 57.7294 16.4917C57.5357 16.9459 57.4388 17.4399 57.4388 17.9735C57.4388 18.6548 57.604 19.2226 57.9344 19.6768C58.2762 20.1196 58.7206 20.5 59.2675 20.8179C59.8258 21.1359 60.4524 21.4141 61.1474 21.6525C61.8538 21.8796 62.5716 22.1181 63.3008 22.3679C64.0414 22.6177 64.7592 22.9015 65.4542 23.2195C66.1606 23.5261 66.7872 23.9178 67.3341 24.3947C67.8924 24.8716 68.3368 25.4564 68.6672 26.149C69.009 26.8417 69.1799 27.6933 69.1799 28.7039C69.1799 29.7712 68.9976 30.7761 68.633 31.7186C68.2684 32.6497 67.7329 33.4615 67.0265 34.1542C66.3315 34.8468 65.4713 35.3919 64.4459 35.7893C63.4318 36.1867 62.2754 36.3854 60.9765 36.3854C59.3814 36.3854 57.9344 36.1015 56.6356 35.5338C55.3367 34.9547 54.2258 34.1769 53.303 33.2004L54.26 31.6334C54.3512 31.5085 54.4594 31.4063 54.5847 31.3268C54.7215 31.236 54.8696 31.1906 55.0291 31.1906C55.1772 31.1906 55.3424 31.253 55.5247 31.3779C55.7184 31.4915 55.9349 31.6391 56.1741 31.8208C56.4134 32.0025 56.6868 32.2012 56.9945 32.4169C57.3021 32.6326 57.6496 32.8314 58.037 33.013C58.4358 33.1947 58.8858 33.348 59.3871 33.4729C59.8884 33.5865 60.4524 33.6432 61.0791 33.6432C61.8652 33.6432 62.5659 33.5354 63.1812 33.3196C63.7964 33.1039 64.3148 32.803 64.7364 32.4169C65.1693 32.0195 65.4998 31.5483 65.7276 31.0032C65.9555 30.4582 66.0694 29.8507 66.0694 29.1808C66.0694 28.4427 65.8985 27.8409 65.5567 27.3754C65.2263 26.8985 64.7877 26.501 64.2408 26.1831C63.6939 25.8652 63.0672 25.5983 62.3608 25.3826C61.6544 25.1555 60.9366 24.9284 60.2075 24.7013C59.4783 24.4628 58.7605 24.1903 58.0541 23.8837C57.3477 23.5772 56.721 23.1797 56.1741 22.6915C55.6272 22.2032 55.1829 21.5957 54.8411 20.869C54.5107 20.131 54.3455 19.2226 54.3455 18.1439C54.3455 17.2809 54.5107 16.4463 54.8411 15.6401C55.1829 14.8339 55.6728 14.1186 56.3109 13.4941C56.9603 12.8695 57.7521 12.3699 58.6864 11.9952C59.6321 11.6205 60.7145 11.4332 61.9336 11.4332C63.3008 11.4332 64.5427 11.6489 65.6593 12.0804C66.7872 12.5119 67.7785 13.1364 68.633 13.9539L67.8298 15.5209Z" fill="white"/>
<path fill-rule="evenodd" clip-rule="evenodd" d="M95.0878 23.9178C95.0878 25.7459 94.7972 27.4094 94.2162 28.9083C93.6351 30.4071 92.8148 31.6902 91.7552 32.7575C90.6956 33.8249 89.4195 34.6538 87.9269 35.2443C86.4458 35.8234 84.8051 36.1129 83.0049 36.1129H73.8616V11.7057H83.0049C84.8051 11.7057 86.4458 12.0009 87.9269 12.5914C89.4195 13.1705 90.6956 13.9994 91.7552 15.0781C92.8148 16.1454 93.6351 17.4285 94.2162 18.9274C94.7972 20.4262 95.0878 22.0897 95.0878 23.9178ZM91.0715 19.8982C91.4817 21.0791 91.6868 22.419 91.6868 23.9178C91.6868 25.4166 91.4817 26.7565 91.0715 27.9374C90.6614 29.1183 90.0803 30.1175 89.3283 30.9351C88.5764 31.7413 87.6649 32.3601 86.5939 32.7916C85.5229 33.2231 84.3266 33.4388 83.0049 33.4388H77.1771V14.3797H83.0049C84.3266 14.3797 85.5229 14.5955 86.5939 15.027C87.6649 15.4585 88.5764 16.083 89.3283 16.9005C90.0803 17.7181 90.6614 18.7173 91.0715 19.8982Z" fill="white"/>
</svg>
